# xmcd
#
# Track frame offsets:
#	150
#	10325
#	20680
#	41085
#	53938
#	65110
#	75647
#	93937
#	105930
#	123625
#	132140
#	149730
#	159625
#	171608
#	183613
#	197945
#	213485
#	228725
#	244627
#	257595
#	276120
#	289737
#	300957
#
# Disc length: 4207 seconds
#
# Revision: 0
# Processed by: cddbd v1.4PL0 Copyright (c) Steve Scherf et al.
# Submitted via: EasyCDDAExtractor 4.5.0.2
#
DISCID=5b106d17
DTITLE=Joe Dassin - Le meilleur de
DYEAR=1970
DGENRE=Chansons
TTITLE0=Bip Bip
TTITLE1=L'Amérique
TTITLE2=L'Eté Indien
TTITLE3=A Toi
TTITLE4=Excuse me Lady
TTITLE5=Le Moustique
TTITLE6=Salut les Amoureux
TTITLE7=Siffler sur la Colline
TTITLE8=Le Café des 3 Colombes
TTITLE9=Il faut naître a Monaco
TTITLE10=Il était une fois
TTITLE11=La Fleur aux Dents
TTITLE12=Les Champs Elysées
TTITLE13=Les Daltons
TTITLE14=L'équipe à Jojo
TTITLE15=Et si tu n'existats pas
TTITLE16=Le Petit Pain au Chocolat
TTITLE17=Le dernier Slow
TTITLE18=Guantanamera
TTITLE19=Billy le Bordelais
TTITLE20=C'est la vie
TTITLE21=Le Chemin de Papà
TTITLE22=Si tu t'appelles Mélancolie
EXTD=
EXTT0=
EXTT1=
EXTT2=
EXTT3=
EXTT4=
EXTT5=
EXTT6=
EXTT7=
EXTT8=
EXTT9=
EXTT10=
EXTT11=
EXTT12=
EXTT13=
EXTT14=
EXTT15=
EXTT16=
EXTT17=
EXTT18=
EXTT19=
EXTT20=
EXTT21=
EXTT22=
PLAYORDER=
